<svg width="512" height="512" viewBox="0 0 512 512" fill="none" xmlns="http://www.w3.org/2000/svg">
  <!-- Fundo circular -->
  <circle cx="256" cy="256" r="256" fill="#000000"/>
  
  <!-- Silhueta do carro estilizada -->
  <path d="M396 276c0-8-6-16-16-16h-16l-32-80H180l-32 80h-16c-8 0-16 8-16 16v48c0 8 8 16 16 16h16v32c0 8 8 16 16 16h32c8 0 16-8 16-16v-32h96v32c0 8 8 16 16 16h32c8 0 16-8 16-16v-32h16c8 0 16-8 16-16v-48z" fill="#FFFFFF"/>
  
  <!-- Detalhes em vermelho -->
  <circle cx="180" cy="276" r="24" fill="#FF0000"/>
  <circle cx="332" cy="276" r="24" fill="#FF0000"/>
  
  <!-- Reflexo estilizado -->
  <path d="M180 180h152l24 60H156l24-60z" fill="#FF0000" fill-opacity="0.2"/>
</svg>